<svg xmlns="http://www.w3.org/2000/svg" xmlns:xlink="http://www.w3.org/1999/xlink" viewBox="0,0,256,256" width="50px" height="50px" fill-rule="nonzero"><g fill="#ffffff" fill-rule="nonzero" stroke="none" stroke-width="1" stroke-linecap="butt" stroke-linejoin="miter" stroke-miterlimit="10" stroke-dasharray="" stroke-dashoffset="0" font-family="none" font-weight="none" font-size="none" text-anchor="none" style="mix-blend-mode: normal"><g transform="scale(5.12,5.12)"><path d="M25,2c-4.63744,0 -8.28721,3.47642 -8.80078,8h-4.19922c-2.16667,0 -3.97133,0.55727 -5.20703,1.79297c-1.2357,1.2357 -1.79297,3.04036 -1.79297,5.20703v24c0,2.16667 0.55727,3.97133 1.79297,5.20703c1.2357,1.2357 3.04036,1.79297 5.20703,1.79297h26c2.16667,0 3.97133,-0.55727 5.20703,-1.79297c1.2357,-1.2357 1.79297,-3.04036 1.79297,-5.20703v-24c0,-2.16667 -0.55727,-3.97133 -1.79297,-5.20703c-1.2357,-1.2357 -3.04036,-1.79297 -5.20703,-1.79297h-4.19922c-0.51357,-4.52358 -4.16334,-8 -8.80078,-8zM25,4c3.95106,0 7,3.00831 7,7v1h6c1.83333,0 3.02867,0.44273 3.79297,1.20703c0.7643,0.7643 1.20703,1.95964 1.20703,3.79297v24c0,1.83333 -0.44273,3.02867 -1.20703,3.79297c-0.7643,0.7643 -1.95964,1.20703 -3.79297,1.20703h-26c-1.83333,0 -3.02867,-0.44273 -3.79297,-1.20703c-0.7643,-0.7643 -1.20703,-1.95964 -1.20703,-3.79297v-24c0,-1.83333 0.44273,-3.02867 1.20703,-3.79297c0.7643,-0.7643 1.95964,-1.20703 3.79297,-1.20703h6v-1c0,-3.99169 3.04894,-7 7,-7zM25,6c-2.73842,0 -4.88471,2.298 -5,4.95703l-0.04492,1.04297h10.08984l-0.04492,-1.04297c-0.11529,-2.65903 -2.26158,-4.95703 -5,-4.95703zM25,8c1.20704,0 2.07231,0.90239 2.54688,2h-5.09375c0.47456,-1.09761 1.33984,-2 2.54688,-2zM30.43555,18c-1.241,0.226 -2.48148,0.90241 -3.27148,1.69141c-0.79,0.79 -1.35352,1.80588 -1.35352,3.04688c0,0.226 0.2245,0.45117 0.5625,0.45117c1.241,-0.112 2.59672,-0.79036 3.38672,-1.69336c0.677,-0.789 1.24023,-1.91692 1.24023,-3.04492c0,-0.225 -0.22645,-0.45117 -0.56445,-0.45117zM22.57227,23.51953c-1.407,0 -2.81395,0.81956 -3.75195,2.22656c-0.587,0.821 -0.82031,1.87683 -0.82031,3.04883c0,1.875 0.58505,3.98533 1.87305,5.86133c0.704,1.055 1.75983,2.34375 3.04883,2.34375c1.173,0 1.52483,-0.70312 3.04883,-0.70312c1.641,0 1.87487,0.70313 3.04688,0.70313c1.407,0 2.46302,-1.40613 3.16602,-2.57812c0.469,-0.586 0.70269,-1.05677 1.05469,-1.75977c-3.709,-1.447 -3.70931,-5.44695 -0.82031,-7.50195c-0.821,-0.938 -1.99383,-1.64062 -3.04883,-1.64062c-1.641,0 -2.22644,0.70313 -3.39844,0.70313c-1.172,0 -1.99144,-0.70312 -3.39844,-0.70312z"></path></g></g></svg>